<svg xmlns="http://www.w3.org/2000/svg" width="1919.557" height="166.461" viewBox="0 0 1919.557 166.461">
  <g id="Group_3684" data-name="Group 3684" transform="translate(-0.566 -913)">
    <path id="Path_27" data-name="Path 27" d="M0,609l79.482,6.255c80.981,6.253,239.945,18.762,400.408,39.931,160.463,21.649,319.426,52.44,479.889,58.693S1279.2,701.371,1439.668,695.6c160.463-6.255,319.426,0,400.408,2.887l79.482,2.885v74.09H0Z" transform="translate(0.566 304)" fill="#32abe2" fill-rule="evenodd" opacity="0.45"/>
    <path id="Path_28" data-name="Path 28" d="M0,675.585,63.985,688.9c63.985,13.317,191.956,39.951,319.926,33.292s255.941-46.609,383.911-73.243A1879.578,1879.578,0,0,1,1151.734,609c127.97,0,255.941,13.317,383.911,36.622s255.946,56.6,319.921,73.243l63.99,16.646v39.951H0Z" transform="translate(0.566 304)" fill="#6c63ff" fill-rule="evenodd"/>
  </g>
</svg>
